<?xml version="1.0" encoding="utf-8"?>
<!-- Generator: Adobe Illustrator 19.1.0, SVG Export Plug-In . SVG Version: 6.00 Build 0)  -->
<svg version="1.1" id="Facebook" xmlns="http://www.w3.org/2000/svg" xmlns:xlink="http://www.w3.org/1999/xlink" x="0px" y="0px"
	 viewBox="47 -47 144.1 144" style="enable-background:new 47 -47 144.1 144;" xml:space="preserve">
<style type="text/css">
	.st0{fill:#3A270A;}
</style>
<path class="st0" d="M155.7-47h-26.6c-0.1,0-0.1,0-0.2,0c-26.8,0.1-30.3,18.8-30.3,35.2c0,0.2-0.1,0.3-0.1,0.5V0.1H80.2
	c-1.1,0-2,0.9-2,2v28.3c0,1.1,0.9,2,2,2h18.3v62.3c0,1.1,0.9,2,2,2h26.8c1.1,0,2-0.9,2-2V32.5h26.3c1.1,0,2-0.9,2-2V2.2
	c0-1.1-0.9-2-2-2h-28.3V-15h28.3c1.1,0,2-0.9,2-2v-27.9C157.7-46.1,156.8-47,155.7-47z"/>
</svg>
