<?xml version="1.0" encoding="utf-8"?>
<!-- Generator: Adobe Illustrator 19.1.0, SVG Export Plug-In . SVG Version: 6.00 Build 0)  -->
<svg version="1.1" id="Instagram" xmlns="http://www.w3.org/2000/svg" xmlns:xlink="http://www.w3.org/1999/xlink" x="0px" y="0px"
	 viewBox="47 -47 144.1 144" style="enable-background:new 47 -47 144.1 144;" xml:space="preserve">
<style type="text/css">
	.st0{fill:#3A270A;}
</style>
<path class="st0" d="M165.3-47H72c-13.8,0-25,11.2-25,25v93.7c0,13.8,11.2,25,25,25h93.3c13.8,0,25-11.2,25-25v-93.8
	C190.3-35.8,179.1-47,165.3-47z M140.2,24.5c0,11.9-9.7,21.6-21.6,21.6S97,36.4,97,24.5c0-5.9,2.4-11.3,6.2-15.2h30.7
	C137.8,13.3,140.2,18.6,140.2,24.5z M146.5-27.1h21.9v22.5h-21.9V-27.1z M165.3,81.9H72c-5.7,0-10.3-4.6-10.3-10.2V9.4h24
	c-2.1,4.6-3.4,9.7-3.4,15.2c0,20,16.3,36.3,36.3,36.3s36.3-16.3,36.3-36.3c0-5.4-1.2-10.5-3.4-15.2h24v62.3
	C175.6,77.3,170.9,81.9,165.3,81.9z"/>
</svg>
