<?xml version="1.0" encoding="utf-8"?>
<!-- Generator: Adobe Illustrator 19.1.0, SVG Export Plug-In . SVG Version: 6.00 Build 0)  -->
<svg version="1.1" id="Instagram" xmlns="http://www.w3.org/2000/svg" xmlns:xlink="http://www.w3.org/1999/xlink" x="0px" y="0px"
	 viewBox="47 -47 144.1 144" style="enable-background:new 47 -47 144.1 144;" xml:space="preserve">
<style type="text/css">
	.st0{fill:#C37E07;}
</style>
<path class="st0" d="M166.1-46.7H72.8c-13.8,0-25,11.2-25,25V72c0,13.8,11.2,25,25,25h93.3c13.8,0,25-11.2,25-25v-93.8
	C191.1-35.5,179.9-46.7,166.1-46.7z M141,24.8c0,11.9-9.7,21.6-21.6,21.6s-21.6-9.7-21.6-21.6c0-5.9,2.4-11.3,6.2-15.2h30.7
	C138.6,13.6,141,18.9,141,24.8z M147.3-26.8h21.9v22.5h-21.9V-26.8z M166.1,82.2H72.8c-5.7,0-10.3-4.6-10.3-10.2V9.7h24
	c-2.1,4.6-3.4,9.7-3.4,15.2c0,20,16.3,36.3,36.3,36.3s36.3-16.3,36.3-36.3c0-5.4-1.2-10.5-3.4-15.2h24V72
	C176.4,77.6,171.7,82.2,166.1,82.2z"/>
</svg>
