<?xml version="1.0" encoding="utf-8"?>
<!-- Generator: Adobe Illustrator 19.1.0, SVG Export Plug-In . SVG Version: 6.00 Build 0)  -->
<svg version="1.1" id="Pinterest" xmlns="http://www.w3.org/2000/svg" xmlns:xlink="http://www.w3.org/1999/xlink" x="0px" y="0px"
	 viewBox="47 -47 144.1 144" style="enable-background:new 47 -47 144.1 144;" xml:space="preserve">
<style type="text/css">
	.st0{fill:#3A270A;}
</style>
<path class="st0" d="M144.7-43.7c-35.1-6.1-52.9,3.3-63.2,10.6c-10.2,7.3-21.8,20.6-20.8,43.8s21.1,26.6,21.1,26.6s2.3-4.1,2.8-6.9
	c0.5-2.7,0.3-5.5-3.3-10.2c-7.2-10.7-1.5-29.9,6.2-36.9c7.3-6.7,18.2-16.2,42-14.6C157.6-29.7,157.3,0,157.3,0
	c-0.3,18.5-3.3,23.8-10.7,35.6c-9.3,11.6-25.7,8.2-28.8,4.1c-5-7.3,1-20.8,4.6-34.5s-0.8-15.4-3.3-17.5c-2.4-2.1-15-5.2-21.6,8.2
	c-6.7,13.4,0.2,25.6,0.2,25.6s-2.1,8.7-7.5,27.3C84.7,67.4,83,88.5,85.7,97c7.6-4.3,13-13.6,16.9-23c3.9-9.5,6.5-24.6,7.3-25.2
	c1.3,1.5,10.7,6.9,10.7,6.9c7.3,3.4,20,3.4,31.9-2.1s24.7-24.7,26.2-41.2C182.5-19.1,167.9-37.8,144.7-43.7z"/>
</svg>
