<?xml version="1.0" encoding="utf-8"?>
<!-- Generator: Adobe Illustrator 19.1.0, SVG Export Plug-In . SVG Version: 6.00 Build 0)  -->
<svg version="1.1" id="Слой_1" xmlns="http://www.w3.org/2000/svg" xmlns:xlink="http://www.w3.org/1999/xlink" x="0px" y="0px"
	 viewBox="-8 -12 31.7 75" style="enable-background:new -8 -12 31.7 75;" xml:space="preserve">
<style type="text/css">
	.st0{fill:#3B270A;}
</style>
<g>
	<g>
		<path class="st0" d="M-5.5-8.2C-1.4-2.4,2.7,3.4,6.8,9.2c2.7,3.8,5.4,7.5,8,11.3c1.3,1.9,3.3,3.9,4.3,6c-0.7-1.4,0.2-1.2-1.1,0.3
			c-1.1,1.2-1.9,2.6-2.9,3.9c-2.7,3.7-5.4,7.4-8.1,11.1C2.9,47.5-1.3,53.3-5.5,59c-0.9,1.3,1.2,2.5,2.2,1.3
			C4.9,49,13.1,37.8,21.4,26.5c0.2-0.3,0.2-0.9,0-1.3C13.1,13.7,4.9,2.1-3.3-9.5C-4.2-10.8-6.4-9.5-5.5-8.2L-5.5-8.2z"/>
	</g>
</g>
</svg>
