<?xml version="1.0" encoding="utf-8"?>
<!-- Generator: Adobe Illustrator 19.1.0, SVG Export Plug-In . SVG Version: 6.00 Build 0)  -->
<svg version="1.0" id="Слой_1" xmlns="http://www.w3.org/2000/svg" xmlns:xlink="http://www.w3.org/1999/xlink" x="0px" y="0px"
	 viewBox="0 0 31.7 75" enable-background="new 0 0 31.7 75" xml:space="preserve">
<g>
	<g>
		<path fill="#A3A3A3" d="M2.5,3.8c4.1,5.8,8.2,11.6,12.3,17.4c2.7,3.8,5.4,7.5,8,11.3c1.3,1.9,3.3,3.9,4.3,6
			c-0.7-1.4,0.2-1.2-1.1,0.3c-1.1,1.2-1.9,2.6-2.9,3.9c-2.7,3.7-5.4,7.4-8.1,11.1C10.9,59.5,6.7,65.3,2.5,71
			c-0.9,1.3,1.2,2.5,2.2,1.3C12.9,61,21.1,49.8,29.4,38.5c0.2-0.3,0.2-0.9,0-1.3C21.1,25.7,12.9,14.1,4.7,2.5
			C3.8,1.2,1.6,2.5,2.5,3.8L2.5,3.8z"/>
	</g>
</g>
</svg>
