<?xml version="1.0" encoding="utf-8"?>
<!-- Generator: Adobe Illustrator 19.1.0, SVG Export Plug-In . SVG Version: 6.00 Build 0)  -->
<svg version="1.1" id="Слой_1" xmlns="http://www.w3.org/2000/svg" xmlns:xlink="http://www.w3.org/1999/xlink" x="0px" y="0px"
	 viewBox="-281 404.9 32 32" style="enable-background:new -281 404.9 32 32;" xml:space="preserve">
<style type="text/css">
	.st0{fill:#333333;}
	.st1{display:none;fill:#FFFFFF;}
</style>
<g id="Flat_copy">
	<g>
		<path class="st0" d="M-265,404.9c-8.8,0-16,7.2-16,16c0,8.8,7.2,16,16,16s16-7.2,16-16C-249,412.1-256.2,404.9-265,404.9z
			 M-256.9,427c0,1.1-0.9,2-2,2h-12.1c-1.1,0-2-0.9-2-2v-12.1c0-1.1,0.9-2,2-2h12.1c1.1,0,2,0.9,2,2V427z"/>
	</g>
	<path class="st1" d="M-258.9,412.8h-12.1c-1.1,0-2,0.9-2,2V427c0,1.1,0.9,2,2,2h12.1c1.1,0,2-0.9,2-2v-12.1
		C-256.9,413.7-257.8,412.8-258.9,412.8z M-265,417.7c1.8,0,3.2,1.4,3.2,3.1c0,1.7-1.5,3.1-3.2,3.1c-1.8,0-3.2-1.4-3.2-3.1
		C-268.2,419.1-266.8,417.7-265,417.7z M-258.9,426.4c0,0.4-0.2,0.5-0.5,0.5h-11.1c-0.4,0-0.5-0.2-0.5-0.5v-7.1l1.3,0.3
		c-0.1,0.4-0.2,0.9-0.2,1.4c0,2.7,2.2,4.9,5,4.9c2.8,0,5-2.2,5-4.9c0-0.5-0.1-0.9-0.2-1.4l1.2-0.3L-258.9,426.4L-258.9,426.4z
		 M-258.9,417.4c0,0.3-0.2,0.5-0.5,0.5h-2c-0.3,0-0.5-0.2-0.5-0.5v-2c0-0.3,0.2-0.5,0.5-0.5h2c0.3,0,0.5,0.2,0.5,0.5
		C-258.9,415.3-258.9,417.4-258.9,417.4z"/>
</g>
<path class="st0" d="M-258.9,426.5L-258.9,426.5c0,0.4-0.1,0.5-0.5,0.5h-11.1c-0.4,0-0.5-0.2-0.5-0.5v-7.1l1.3,0.3
	c-0.1,0.4-0.2,0.9-0.2,1.4c0,2.7,2.2,4.9,5,4.9c2.8,0,5-2.2,5-4.9c0-0.5-0.1-0.9-0.2-1.4l1.2-0.3V426.5"/>
<path class="st0" d="M-258.9,417.4c0,0.3-0.2,0.5-0.5,0.5h-2c-0.3,0-0.5-0.2-0.5-0.5v-2c0-0.3,0.2-0.5,0.5-0.5h2
	c0.3,0,0.5,0.2,0.5,0.5C-258.9,415.3-258.9,417.4-258.9,417.4z"/>
<ellipse class="st0" cx="-265" cy="420.9" rx="3.2" ry="3.1"/>
</svg>
