<?xml version="1.0" encoding="utf-8"?>
<!-- Generator: Adobe Illustrator 19.1.0, SVG Export Plug-In . SVG Version: 6.00 Build 0)  -->
<svg version="1.1" id="Слой_1" xmlns="http://www.w3.org/2000/svg" xmlns:xlink="http://www.w3.org/1999/xlink" x="0px" y="0px"
	 viewBox="-281 404.9 32 32" style="enable-background:new -281 404.9 32 32;" xml:space="preserve">
<style type="text/css">
	.st0{fill:#333333;}
</style>
<g id="Flat_copy">
	<g>
		<path class="st0" d="M-265,404.9c-8.8,0-16,7.2-16,16c0,8.8,7.2,16,16,16s16-7.2,16-16C-249,412.1-256.2,404.9-265,404.9z
			 M-263.4,425.5c-1.3,0-2.5-0.7-2.9-1.5c0,0-0.7,2.7-0.8,3.3c-0.5,1.9-2,3.7-2.1,3.9c-0.1,0.1-0.3,0.1-0.3-0.1c0-0.2-0.4-2.6,0-4.5
			c0.2-1,1.5-6.5,1.5-6.5s-0.4-0.8-0.4-1.9c0-1.8,1-3.1,2.3-3.1c1.1,0,1.6,0.8,1.6,1.8c0,1.1-0.7,2.7-1,4.2
			c-0.3,1.3,0.6,2.3,1.9,2.3c2.2,0,3.8-2.9,3.8-6.3c0-2.6-1.8-4.6-4.9-4.6c-3.6,0-5.8,2.7-5.8,5.7c0,1,0.3,1.8,0.8,2.3
			c0.2,0.3,0.2,0.4,0.2,0.7c-0.1,0.2-0.2,0.7-0.2,1c-0.1,0.3-0.3,0.4-0.6,0.3c-1.7-0.7-2.4-2.5-2.4-4.5c0-3.4,2.8-7.4,8.5-7.4
			c4.5,0,7.5,3.3,7.5,6.8C-257,422-259.6,425.5-263.4,425.5z"/>
	</g>
</g>
</svg>
