<?xml version="1.0" encoding="utf-8"?>
<!-- Generator: Adobe Illustrator 19.1.0, SVG Export Plug-In . SVG Version: 6.00 Build 0)  -->
<svg version="1.0" id="Слой_1" xmlns="http://www.w3.org/2000/svg" xmlns:xlink="http://www.w3.org/1999/xlink" x="0px" y="0px"
	 viewBox="0 0 51.2 51.2" enable-background="new 0 0 51.2 51.2" xml:space="preserve">
<path fill="#A3A3A3" d="M16.3,51.2c-0.7-0.3-0.6-4.7-0.5-7.9c0.2-4.7,4.3-19.5,4.3-19.5s-1.8-2.9-0.6-7.6s5.2-5,6.5-4.4
	c1.3,0.6,3.6,1.5,2.3,6.6c-1.3,5.1-1.3,4-2.2,8c-0.9,3.9,3.1,6.8,6.6,5.3c3.5-1.5,6-4.8,7-11.3S39.4,6.7,30.3,5.3s-14.5,5-15.7,8.2
	s-1.7,7.6-0.3,9.9s1.9,1.6,1.5,3.5c-0.2,1.3-0.5,2.7-1.3,2.8c-0.7,0.1-2.3-0.6-3.7-1.9c-2-1.9-4.9-8.3-1.7-15.9S19.7,0.3,28.3,0.2
	s20.5,5.6,18.6,20.2S34.6,37.7,30.5,37.1s-5.7-2.8-6.2-3.6c0,0-1.7,7.6-2.7,10c-1.3,3-3.1,5.6-3.4,6.1c-0.3,0.4-1.1,1.4-1.3,1.6
	C16.8,51.2,16.6,51.3,16.3,51.2z"/>
</svg>
